<svg width="130" height="130" viewBox="0 0 130 130" xmlns="http://www.w3.org/2000/svg">
    <rect width="130" height="130" fill="#633759" rx="42"></rect>
    <path d="M65.5373 28.7937C67.8814 26.4504 71.0602 25.1339 74.3748 25.1339C77.6893 25.1339 80.8682 26.4504 83.2123 28.7937L107.456 53.0375C109.799 55.3816 111.116 58.5604 111.116 61.875C111.116 65.1895 109.799 68.3684 107.456 70.7125L73.081 105.087C70.7374 107.432 67.5585 108.749 64.2435 108.75H46.9998C43.6848 108.749 40.5059 107.432 38.1623 105.087L22.5373 89.4625C20.1939 87.1184 18.8774 83.9395 18.8774 80.625C18.8774 77.3104 20.1939 74.1316 22.5373 71.7875L65.5373 28.7937ZM78.7935 33.2125C77.6215 32.0408 76.032 31.3826 74.3748 31.3826C72.7175 31.3826 71.1281 32.0408 69.956 33.2125L40.9998 62.1687L74.081 95.25L103.037 66.2937C104.209 65.1217 104.867 63.5323 104.867 61.875C104.867 60.2177 104.209 58.6283 103.037 57.4562L78.7935 33.2125ZM69.6623 99.6688L36.581 66.5875L26.9623 76.2063C25.7906 77.3783 25.1324 78.9677 25.1324 80.625C25.1324 82.2823 25.7906 83.8717 26.9623 85.0437L42.5873 100.669C43.7591 101.841 45.3486 102.5 47.006 102.5H64.2498C65.9072 102.5 67.4967 101.841 68.6685 100.669L69.6623 99.6688Z" fill="#fff"/>
</svg>
